<svg xmlns="http://www.w3.org/2000/svg" width="57" height="33" fill="none" viewBox="0 0 57 33"><path fill="#fbf503" d="M0 .363h16.651q2.753 0 4.874 1.09 2.121 1.044 3.294 3.04 1.173 1.953 1.174 4.494v4.221q0 2.633-1.219 4.676-1.218 1.997-3.43 3.131-2.165 1.09-5.054 1.09H6.227v10.031H0zm16.2 16.295q1.58 0 2.572-.999.993-1.043.993-2.723V9.26q0-1.59-.902-2.497-.858-.953-2.302-.953H6.227v10.848zM40.178 32.5q-3.476 0-6.138-1.499-2.617-1.497-4.06-4.221-1.445-2.769-1.445-6.355v-8.351q0-3.586 1.444-6.31 1.49-2.768 4.152-4.266Q36.838 0 40.358 0h4.783q3.385 0 5.957 1.452a9.96 9.96 0 0 1 3.971 4.086q1.444 2.587 1.444 6.036h-6.137q0-2.723-1.444-4.357-1.444-1.68-3.79-1.68h-4.784q-2.527 0-4.061 1.907-1.535 1.86-1.535 4.902v7.807q0 3.041 1.49 4.948 1.488 1.86 3.925 1.86h4.874q2.392 0 3.88-1.86 1.535-1.861 1.535-4.902h6.137q0 3.676-1.444 6.49-1.443 2.769-4.061 4.312Q48.48 32.5 45.05 32.5z"/></svg>